Coordinates
version=1
nRows=21
nColumns=33
inDegrees=yes

Units are S.I. units (second, meters, Newtons, ...)
Angles are in degrees.

endheader
time	ground_thorax_rot_x	ground_thorax_rot_y	ground_thorax_rot_z	ground_thorax_tx	ground_thorax_ty	ground_thorax_tz	clav_prot_r	clav_elev_r	scapula_abduction_r	scapula_elevation_r	scapula_upward_rot_r	scapula_winging_r	shoulder_elv_r	plane_of_elev_r	axial_rot_r	elbow_flexion_r	pro_sup_r	wrist_flex_r	wrist_dev_r	clav_prot_l	clav_elev_l	scapula_abduction_l	scapula_elevation_l	scapula_upward_rot_l	scapula_winging_l	shoulder_elv_l	plane_of_elev_l	axial_rot_l	elbow_flexion_l	pro_sup_l	wrist_flex_l	wrist_dev_l
      7.14000000	    -40.35755078	     -1.09621140	     -0.91671994	    -72.89870367	    873.82078224	     -6.97481129	      6.10225698	    -45.00000000	     45.00000000	    -45.00000000	     -6.31719502	   1704.91400536	  -2090.24351942	     31.72638274	     73.97222581	   1458.56438663	   -283.81654087	     17.00862633	      3.81351507	     14.71134830	     43.25081956	    -45.00000000	    -45.00000000	    -26.22469270	     85.02786851	  -2977.72100814	    137.03663371	    170.18900143	     10.72350158	     19.11837264	     10.73912313	    -22.20540434
      7.15000000	    -40.24829649	     -0.68339551	     -1.34632168	    -69.06367407	    870.44185762	     -6.88648350	      5.31355496	    -45.00000000	     45.00000000	    -45.00000000	     -4.89386968	   1705.46281178	  -2090.54485370	     31.24901267	     73.31283301	   1458.43253926	   -285.50052083	     17.55549143	      4.09825015	     15.58581957	     43.76027972	    -45.00000000	    -45.00000000	    -25.35971071	     84.20436486	  -2978.07390761	    137.32709061	    170.90531029	     10.48903511	     17.27414108	     10.83071154	    -21.95657483
      7.16000000	    -40.14562829	     -0.58650302	     -1.44418561	    -65.22355263	    866.87540700	     -6.76604190	      5.03480951	    -45.00000000	     45.00000000	    -45.00000000	     -4.50121914	   1705.67519227	  -2091.05832238	     31.28903394	     72.79278979	   1458.11714419	   -287.73966918	     17.61064704	      4.31531391	     15.66650990	     43.82846421	    -45.00000000	    -45.00000000	    -25.09174930	     83.63897282	  -2978.32788946	    137.28612535	    171.42363449	     10.33336006	     15.54666066	     11.33516728	    -21.73889703
      7.17000000	    -40.06576848	     -0.68707439	     -1.38699879	    -61.38419444	    863.13540253	     -6.59980630	      5.02811432	    -45.00000000	     45.00000000	    -45.00000000	     -4.63621151	   1706.16007742	  -2091.40553909	     31.22669914	     71.87184383	   1457.82223102	   -289.96563514	     17.90019982	      4.63506994	     15.75293885	     43.92602472	    -45.00000000	    -45.00000000	    -25.08873714	     83.19807392	  -2978.62158624	    137.17144218	    171.68034304	     10.15089852	     14.25793288	     11.48321416	    -21.49845775
      7.18000000	    -39.98345473	     -0.87985562	     -1.26030929	    -57.55026403	    859.24408371	     -6.38128441	      5.07650303	    -45.00000000	     45.00000000	    -45.00000000	     -4.92857020	   1706.66652386	  -2091.72661907	     31.17694962	     71.02175524	   1457.52140578	   -292.25742356	     18.17709266	      4.98540832	     15.82314584	     43.97014870	    -45.00000000	    -45.00000000	    -25.26358804	     82.78132744	  -2978.92559985	    136.97746214	    172.13188581	      9.96505582	     13.25796776	     11.61502495	    -21.26497120
      7.19000000	    -39.95362868	     -1.29882035	     -0.92181240	    -53.72966319	    855.23464156	     -6.10772637	      5.49665471	    -45.00000000	     45.00000000	    -45.00000000	     -6.03557873	   1706.95392505	  -2092.20137931	     31.52983012	     70.34217696	   1457.19731976	   -294.35408663	     18.14867583	      5.21617505	     15.34097570	     43.74889576	    -45.00000000	    -45.00000000	    -26.01535019	     82.66789266	  -2979.05046233	    136.39903183	    172.26678549	      9.84544320	     12.63383489	     11.93159535	    -21.05636512
      7.20000000	    -39.89748264	     -1.53989151	     -0.72563498	    -49.92911453	    851.14060613	     -5.77511065	      5.59585141	    -45.00000000	     45.00000000	    -45.00000000	     -6.40850808	   1707.29808668	  -2092.66356445	     31.50753367	     69.41958547	   1456.82509004	   -296.67326669	     18.25380819	      5.54706048	     15.42910154	     43.75571319	    -45.00000000	    -45.00000000	    -26.30197186	     82.20268741	  -2979.30826902	    136.18101629	    172.75938819	      9.65305935	     12.06213488	     12.07513409	    -20.80833071
      7.21000000	    -39.74094729	     -0.91156029	     -1.39607438	    -46.15844820	    847.00115345	     -5.38214075	      4.67686463	    -45.00000000	     45.00000000	    -45.00000000	     -4.84899869	   1707.90089065	  -2093.02812277	     30.97474323	     68.98303967	   1456.27968377	   -300.34560565	     18.61268627	      6.14667242	     16.38646501	     44.26034478	    -45.00000000	    -45.00000000	    -25.35128003	     81.02840512	  -2979.63769887	    136.53015207	    174.27966461	      9.42522166	     11.32283109	     12.14635397	    -20.55509541
      7.22000000	    -39.70200060	     -0.94065274	     -1.46554457	    -42.42588846	    842.85898438	     -4.93066772	      4.45697493	    -45.00000000	     45.00000000	    -45.00000000	     -4.83671539	   1708.19087797	  -2093.60613661	     30.98734123	     68.68898654	   1455.63186610	   -304.59343467	     18.61726320	      6.61251633	     16.41550148	     44.28924364	    -45.00000000	    -45.00000000	    -25.30867765	     80.39727292	  -2979.84237633	    136.41771402	    175.04439872	      9.16246222	     10.95919709	     12.43482359	    -20.28177440
      7.23000000	    -39.69203918	     -1.17968358	     -1.32932361	    -38.74720249	    838.76178318	     -4.42857863	      4.56153023	    -45.00000000	     45.00000000	    -45.00000000	     -5.21045544	   1708.70159271	  -2093.97370430	     30.81315634	     68.25873749	   1455.10851103	   -308.60965767	     18.79781042	      7.18029723	     16.59141612	     44.35665963	    -45.00000000	    -45.00000000	    -25.61146328	     79.88575147	  -2980.02505720	    136.24107976	    175.67926118	      9.00573030	     10.81338764	     12.33210476	    -20.05390107
      7.24000000	    -39.66763706	     -1.31315756	     -1.34543293	    -35.13652894	    834.75787639	     -3.89497783	      4.52136020	    -45.00000000	     45.00000000	    -45.00000000	     -5.35939402	   1709.17801175	  -2094.40324332	     30.67300239	     68.02714723	   1454.46523629	   -312.70782168	     18.83453778	      7.72445210	     16.73428225	     44.41534945	    -45.00000000	    -45.00000000	    -25.70900967	     79.39390081	  -2980.24630905	    136.02060486	    176.39254646	      8.76644539	     10.88381496	     12.34116139	    -19.82120528
      7.25000000	    -39.47807117	     -1.29022159	     -1.54340999	    -31.61554854	    830.89529658	     -3.34036241	      4.24516906	    -45.00000000	     45.00000000	    -45.00000000	     -5.08636946	   1709.48862105	  -2094.78057755	     30.58588663	     68.00557410	   1453.82297763	   -317.47328767	     18.73747635	      8.24991823	     16.56716164	     44.11423450	    -45.00000000	    -44.41823994	    -24.96305014	     79.07625197	  -2980.42196103	    136.09820706	    176.92242743	      8.52375339	     11.25679841	     12.57451792	    -19.61792112
      7.26000000	    -39.33435784	     -1.51633262	     -1.57293182	    -28.25235101	    827.22166690	     -2.79678705	      4.23610573	    -45.00000000	     45.00000000	    -45.00000000	     -5.16397071	   1709.92832047	  -2095.06111252	     30.42060036	     68.23065473	   1453.20301481	   -322.00870472	     18.66658780	      8.79695645	     16.43975044	     43.83131690	    -45.00000000	    -43.83742653	    -24.49609370	     78.95461869	  -2980.59672629	    136.06448934	    177.07675988	      8.24401351	     11.84728860	     12.47637298	    -19.42841438
      7.27000000	    -39.19480448	     -1.67608689	     -1.64055260	    -25.04603430	    823.78012240	     -2.25567069	      4.19777230	    -45.00000000	     45.00000000	    -45.00000000	     -5.17047418	   1710.35006950	  -2095.33061333	     30.24481670	     68.65853254	   1452.56844827	   -326.40224795	     18.50899173	      9.29067384	     16.23849601	     43.58497013	    -45.00000000	    -43.26267689	    -23.91118329	     78.82046237	  -2980.79409358	    136.05247725	    177.22979684	      7.96049472	     12.62009928	     12.36439844	    -19.25491217
      7.28000000	    -39.15873256	     -2.31355644	     -1.20398355	    -22.00558671	    820.60575996	     -1.72020079	      4.72036135	    -45.00000000	     45.00000000	    -45.00000000	     -6.28008314	   1710.65565507	  -2095.59726786	     30.33550559	     69.33038100	   1452.10355118	   -329.54828097	     18.36737863	      9.63839998	     15.84236565	     42.91713584	    -45.00000000	    -42.79245108	    -24.52563982	     79.11910026	  -2980.76966214	    135.36107742	    177.00991905	      7.59248404	     13.43407728	     12.16014391	    -19.04677349
      7.29000000	    -39.05483469	     -2.68427005	     -1.06997520	    -19.11633324	    817.72350427	     -1.16813534	      4.82353897	    -45.00000000	     45.00000000	    -45.00000000	     -6.67213847	   1710.89144231	  -2095.84919353	     30.31614222	     69.84246097	   1451.71797299	   -332.21811925	     18.14291891	      9.82006674	     15.44296571	     42.55109941	    -45.00000000	    -42.27987282	    -24.34435528	     79.06910972	  -2980.91133743	    135.31778900	    177.15064046	      7.31189920	     14.34907460	     12.10051414	    -18.89825945
      7.30000000	    -38.92427224	     -2.12442491	     -1.88017914	    -16.44239096	    815.14488553	     -0.62182026	      3.94613735	    -45.00000000	     45.00000000	    -45.00000000	     -5.15656529	   1711.37119147	  -2096.12680958	     29.72252555	     70.64053109	   1451.17555742	   -335.72969231	     17.90576126	     10.21829750	     15.61060324	     42.86417927	    -45.00000000	    -41.73055890	    -22.35366017	     78.51495753	  -2981.21289339	    135.97054152	    177.79014477	      7.10893255	     15.87332573	     11.89651920	    -18.86270673
      7.31000000	    -38.88629875	     -2.37437719	     -1.84565566	    -13.99480176	    812.87043525	     -0.08019617	      3.98699519	    -45.00000000	     45.00000000	    -45.00000000	     -5.25595220	   1711.69395536	  -2096.32827404	     29.55352967	     71.48386299	   1450.77972215	   -338.14885577	     17.72216239	     10.48087402	     15.46061151	     42.61731378	    -45.00000000	    -41.31353858	    -22.04434707	     78.47889955	  -2981.30197554	    135.94241179	    177.80323642	      6.89036434	     17.41555513	     11.57551224	    -18.79051436
      7.32000000	    -38.83276590	     -2.56864430	     -1.80865310	    -11.84377762	    810.88101825	      0.42229828	      4.02838114	    -45.00000000	     45.00000000	    -45.00000000	     -5.42209895	   1711.92223175	  -2096.54096938	     29.39280574	     72.28023020	   1450.49242484	   -339.65134010	     17.55935548	     10.63192256	     15.20489551	     42.39449488	    -45.00000000	    -40.90631609	    -21.80740551	     78.44719573	  -2981.36773357	    135.89830348	    177.83537387	      6.69288086	     18.97553094	     11.26424672	    -18.72699693
      7.33000000	    -38.80042903	     -3.00316566	     -1.46704780	    -10.03682797	    809.14761061	      0.86933658	      4.30681230	    -45.00000000	     45.00000000	    -45.00000000	     -5.97563246	   1711.88232470	  -2096.79368220	     29.40175804	     73.12730424	   1450.35051717	   -340.22248215	     17.41363810	     10.56562218	     14.77457241	     41.85061857	    -45.00000000	    -40.43842797	    -22.02093683	     78.63073351	  -2981.28402524	    135.69479779	    177.56789071	      6.48981780	     20.29386818	     11.03655736	    -18.65077385
      7.34000000	    -38.73590621	     -3.23345766	     -1.47345191	     -8.64457661	    807.63605274	      1.23267392	      4.29968248	    -45.00000000	     45.00000000	    -45.00000000	     -6.08738421	   1712.03911493	  -2096.96996405	     29.32927393	     73.69071422	   1450.16355131	   -340.34325026	     17.25444736	     10.54159450	     14.66472419	     41.49128060	    -45.00000000	    -40.01381378	    -21.76856133	     78.55614574	  -2981.28623905	    135.83243339	    177.64364672	      6.31438557	     21.56370420	     10.81736264	    -18.60158267
